<svg width="84" height="100" viewBox="0 0 84 100" fill="none" xmlns="http://www.w3.org/2000/svg">
<path d="M26.7893 99.9938C26.7884 99.9934 26.7876 99.9931 26.7868 99.9927C14.9027 97.257 4.37938 89.5228 1.09609 77.3736C-2.18957 65.2149 2.28147 52.9574 9.58469 43.2114C13.2363 38.3422 17.5072 33.9721 21.9498 29.8235C26.0854 25.9608 30.6414 22.4114 34.3877 18.1602C38.2512 13.7745 43.0802 5.92991 39.4148 0.000488281C46.0698 4.97273 51.4373 13.2817 50.54 21.8407C49.8232 28.6699 44.6994 35.6231 49.7181 42.0721C52.84 46.0813 59.1597 45.2405 61.494 41.3687L61.3224 41.5533C61.7223 40.9172 62.0149 40.2197 62.1887 39.4887C62.2008 38.8953 62.0957 38.2325 61.7746 37.4533L62.3859 37.787C74.0869 43.8538 83.5327 54.4506 83.268 68.22C82.9486 84.9569 67.3552 96.6696 52.2639 100C59.4055 97.1871 65.7725 91.6145 66.6396 83.6019C67.4398 76.2095 63.4771 69.8358 58.1108 65.1219C53.0092 60.6367 46.9215 57.745 41.3731 53.9188C38.1745 51.7134 33.32 47.286 35.0283 42.7965C32.8058 44.7096 31.0514 47.386 30.3592 50.2433C28.9766 55.9433 32.4905 60.3829 36.1228 64.3134C39.7966 68.2824 39.5123 75.0949 33.3154 76.4515C30.6632 77.0285 27.8545 75.9654 26.2508 73.7776C24.5257 71.4245 24.9055 69.0181 25.6018 66.3873C19.8097 70.4874 15.1528 76.7262 15.1691 84.0747C15.1825 90.8138 20.7917 97.4001 26.7868 99.9927C26.7877 99.9929 26.7887 99.9931 26.7897 99.9934L26.7893 99.9938Z" fill="#EE4323"/>
</svg>
