<svg width="100" height="55" viewBox="0 0 100 55" fill="none" xmlns="http://www.w3.org/2000/svg">
<path d="M30.6361 36.3396C25.6683 36.3396 21.619 32.2582 21.619 27.2546C21.619 22.251 25.6683 18.1696 30.6361 18.1696C35.604 18.1696 39.6533 22.251 39.6533 27.2546C39.6533 32.2546 35.6004 36.3396 30.6361 36.3396ZM8.98501 54.3775C4.02433 54.3668 -0.0142581 50.2674 3.7837e-05 45.2639C0.00287096 42.864 0.956959 40.5632 2.65321 38.8656C4.34947 37.168 6.64953 36.2121 9.04934 36.2074C14.0136 36.2181 18.0522 40.3175 18.0343 45.3246C18.0296 47.7235 17.0748 50.0229 15.3788 51.7195C13.6829 53.4161 11.3839 54.3718 8.98501 54.3775ZM91.0506 54.3775C88.6511 54.3823 86.3474 53.436 84.644 51.746C82.9405 50.056 81.9762 47.7599 81.962 45.3604C81.937 40.3496 85.9577 36.236 90.9148 36.211C93.3131 36.2072 95.6153 37.1533 97.3179 38.8424C99.0204 40.5316 99.9847 42.8263 99.9998 45.2245C100.028 50.2317 96.0041 54.3489 91.0506 54.3775Z" fill="white"/>
<path d="M74.1493 18.6984C71.6976 17.9336 69.0779 17.6155 66.5082 17.3368C62.5339 16.9079 60.9506 15.3568 60.2787 11.3754C59.8999 9.15236 59.3709 6.87217 58.4095 4.85287C56.5761 1.01085 52.2802 -0.711806 47.9664 0.271037C44.3209 1.10377 41.2938 4.73136 41.1258 8.45544C40.9328 12.7013 43.3631 16.3289 47.5375 17.5798C49.5211 18.1766 51.6297 18.4733 53.699 18.627C57.4982 18.9022 58.7669 20.0351 59.7927 21.7649C60.4431 22.8586 61.0686 23.9343 61.0686 27.1866C61.0686 30.4425 60.436 31.5183 59.7927 32.6084C58.7669 34.3382 57.4982 35.4675 53.699 35.7499C51.6261 35.9 49.5175 36.2002 47.5375 36.7971C43.3631 38.0515 40.9328 41.672 41.1258 45.925C41.2938 49.6455 44.3245 53.2731 47.9664 54.1058C52.2802 55.0922 56.5761 53.366 58.4095 49.524C59.3745 47.5083 59.8999 45.2245 60.2787 43.0015C60.9542 39.0201 62.5375 37.4725 66.5082 37.0401C69.0814 36.7613 71.6976 36.4397 74.1493 35.6748C77.8698 34.5133 80.1071 31.043 80.1071 27.1866C80.1071 23.3339 77.8698 19.8671 74.1493 18.6984Z" fill="#F44250"/>
</svg>
