<svg width="100" height="80" viewBox="0 0 100 80" fill="none" xmlns="http://www.w3.org/2000/svg">
<path d="M93.2204 21.4926L77.4058 4.98413H23.34L6.74579 21.4926L48.4547 71.7149L93.2204 21.4926Z" fill="#142641"/>
<path fill-rule="evenodd" clip-rule="evenodd" d="M56.1396 2.83695L53.2084 4.52988L52.4945 3.29358L50.7877 4.27863L49.9542 2.83695L47.3619 4.33346L46.4985 2.83695L46.1905 3.01442L45.2463 1.37933L44.8086 1.63157L44.005 0.239746L5.50452 22.4671L6.74579 24.6166L7.18248 24.3644L7.98707 25.7562L8.29415 25.5787L9.23931 27.2148L9.61618 26.9965L10.2164 28.0364L10.3609 27.9526L10.9302 28.9387L12.1715 31.0882L57.3809 4.98651L56.1396 2.83695ZM72.4756 46.4888H55.6581V48.1528H34.4033L88.7159 16.7947L82.676 6.33306L81.4636 7.03296L80.6311 5.59129L67.0469 13.4348L67.8794 14.8754L22.6002 41.017L28.6411 51.4796L28.8834 51.3397V54.5615H33.2932V59.8726H64.7229V54.5615H69.4557V48.2933H72.4756V46.4888Z" fill="#274D82"/>
<path fill-rule="evenodd" clip-rule="evenodd" d="M79.5334 -0.000366211H21.2822L0 21.1731L48.318 79.3615L52.1735 75.0365L100 21.3715L79.5334 -0.000366211ZM77.4058 4.98468L93.2203 21.4932L48.4546 71.7155L6.74576 21.4932L23.34 4.98468H77.4058Z" fill="#3068B7"/>
</svg>
